<?xml version="1.0" encoding="UTF-8" standalone="no"?>
<!-- Generator: Adobe Illustrator 16.0.0, SVG Export Plug-In . SVG Version: 6.00 Build 0)  -->

<svg
   version="1.1"
   id="Capa_1"
   x="0px"
   y="0px"
   width="528.919px"
   height="528.918px"
   viewBox="0 0 528.919 528.918"
   style="enable-background:new 0 0 528.919 528.918;"
   xml:space="preserve"
   sodipodi:docname="circular-arrow.svg"
   inkscape:version="1.1.2 (0a00cf5339, 2022-02-04)"
   xmlns:inkscape="http://www.inkscape.org/namespaces/inkscape"
   xmlns:sodipodi="http://sodipodi.sourceforge.net/DTD/sodipodi-0.dtd"
   xmlns="http://www.w3.org/2000/svg"
   xmlns:svg="http://www.w3.org/2000/svg"><defs
   id="defs41" /><sodipodi:namedview
   id="namedview39"
   pagecolor="#505050"
   bordercolor="#eeeeee"
   borderopacity="1"
   inkscape:pageshadow="0"
   inkscape:pageopacity="0"
   inkscape:pagecheckerboard="0"
   showgrid="false"
   inkscape:zoom="1.6505393"
   inkscape:cx="149.95099"
   inkscape:cy="264.45901"
   inkscape:window-width="3840"
   inkscape:window-height="1536"
   inkscape:window-x="0"
   inkscape:window-y="27"
   inkscape:window-maximized="1"
   inkscape:current-layer="g6" />
<g
   id="g6">
	<g
   id="g4"
   style="fill:#ffffff">
		<path
   d="M70.846,324.059c3.21,3.926,8.409,3.926,11.619,0l69.162-84.621c3.21-3.926,1.698-7.108-3.372-7.108h-36.723    c-5.07,0-8.516-4.061-7.427-9.012c18.883-85.995,95.625-150.564,187.207-150.564c105.708,0,191.706,85.999,191.706,191.706    c0,105.709-85.998,191.707-191.706,191.707c-12.674,0-22.95,10.275-22.95,22.949s10.276,22.949,22.95,22.949    c131.018,0,237.606-106.588,237.606-237.605c0-131.017-106.589-237.605-237.606-237.605    c-116.961,0-214.395,84.967-233.961,196.409c-0.878,4.994-5.52,9.067-10.59,9.067H5.057c-5.071,0-6.579,3.182-3.373,7.108    L70.846,324.059z"
   id="path2"
   style="fill:#ffffff" />
	</g>
</g>
<g
   id="g8">
</g>
<g
   id="g10">
</g>
<g
   id="g12">
</g>
<g
   id="g14">
</g>
<g
   id="g16">
</g>
<g
   id="g18">
</g>
<g
   id="g20">
</g>
<g
   id="g22">
</g>
<g
   id="g24">
</g>
<g
   id="g26">
</g>
<g
   id="g28">
</g>
<g
   id="g30">
</g>
<g
   id="g32">
</g>
<g
   id="g34">
</g>
<g
   id="g36">
</g>
</svg>
